<svg xmlns="http://www.w3.org/2000/svg" width="399.94" height="23.12" viewBox="0 0 399.94 23.12">
  <defs>
    <style>
      .cls-1 {
        fill: #dccd85;
        fill-rule: evenodd;
      }
    </style>
  </defs>
  <path id="deco_title_u.svg" class="cls-1" d="M1081.74,2183.67a1.765,1.765,0,0,0,0-3.47c-2.19-.38-4.99,1.28-5.71,1.74C1076.75,2182.4,1079.55,2184.06,1081.74,2183.67Zm388.52-3.47a1.765,1.765,0,0,0,0,3.47c2.19,0.39,4.99-1.27,5.71-1.73C1475.25,2181.48,1472.45,2179.82,1470.26,2180.2Zm-7.07,1.74c8.24-2.73,10.95-8.01,5.97-11.56,0.71,4.44-4.56,8.35-8.77,10.72-0.03.02-.06,0.03-0.09,0.05H1306.8a6.707,6.707,0,0,0-.96-3.04,5.559,5.559,0,0,0-1.35-1.68,2.854,2.854,0,0,0-1.96-.65,2.045,2.045,0,0,0-1.68,1.15,1.938,1.938,0,0,0-.14,1.09,1.43,1.43,0,0,0,.73,1.08c0.85,0.41,1.95-.43,2.76.08a1.465,1.465,0,0,1,.58,1.04,3.1,3.1,0,0,1-1.33,2.7,5.864,5.864,0,0,1-2.84,1.13,13.313,13.313,0,0,1-7.54-1.76c-0.39-.2-0.78-0.42-1.17-0.65-0.04-.03-0.09-0.06-0.13-0.09-1.97-1.21-3.71-2.89-5.74-4a12.265,12.265,0,0,0-8.52-1.47,2.572,2.572,0,0,1-3.02,0,12.265,12.265,0,0,0-8.52,1.47c-2.03,1.11-3.77,2.79-5.74,4-0.04.03-.09,0.06-0.13,0.09-0.39.23-.78,0.45-1.17,0.65a13.313,13.313,0,0,1-7.54,1.76,5.864,5.864,0,0,1-2.84-1.13,3.1,3.1,0,0,1-1.33-2.7,1.431,1.431,0,0,1,.58-1.04c0.81-.51,1.91.33,2.76-0.08a1.43,1.43,0,0,0,.73-1.08,1.938,1.938,0,0,0-.14-1.09,2.045,2.045,0,0,0-1.68-1.15,2.854,2.854,0,0,0-1.96.65,5.559,5.559,0,0,0-1.35,1.68,6.707,6.707,0,0,0-.96,3.04H1091.69a0.558,0.558,0,0,0-.08-0.05c-4.21-2.37-9.49-6.28-8.77-10.72-4.98,3.55-2.27,8.83,5.97,11.56-8.24,2.72-10.95,8-5.97,11.56-0.72-4.44,4.56-8.35,8.77-10.73a0.594,0.594,0,0,0,.08-0.04h153.73a5.546,5.546,0,0,0,1.44,2.21,6.654,6.654,0,0,0,6.8,1.47c-0.02.19-1.12,1.31-1.08,1.49,0.07,0.26.42,0.21,0.6,0.2,0.35-.03.68-0.05,1.02-0.06a6.815,6.815,0,0,0,2.41-.4,4.637,4.637,0,0,0,2.1-1.75,11.356,11.356,0,0,0,.68-1.11,12.814,12.814,0,0,1,.61-1.16,8.38,8.38,0,0,1,1.67-1.41c0.55-.46,1.1-0.93,1.69-1.35a21.132,21.132,0,0,1,3.04-1.8,12.59,12.59,0,0,1,7.39-1.14,8.624,8.624,0,0,0-1.24,1.25,3.814,3.814,0,0,0-1.01,2.18,0.283,0.283,0,0,0,.16-0.07,4.942,4.942,0,0,0,.69-0.61,4.07,4.07,0,0,1,7.22,0,4.942,4.942,0,0,0,.69.61,0.283,0.283,0,0,0,.16.07,3.814,3.814,0,0,0-1.01-2.18,8.624,8.624,0,0,0-1.24-1.25,12.59,12.59,0,0,1,7.39,1.14,21.132,21.132,0,0,1,3.04,1.8c0.59,0.42,1.14.89,1.69,1.35a8.38,8.38,0,0,1,1.67,1.41,12.814,12.814,0,0,1,.61,1.16c0.21,0.38.43,0.76,0.67,1.11a4.715,4.715,0,0,0,2.11,1.75,6.778,6.778,0,0,0,2.41.4c0.34,0.01.67,0.03,1.02,0.06,0.18,0.01.53,0.06,0.59-.2,0.05-.18-1.05-1.3-1.07-1.49a6.654,6.654,0,0,0,6.8-1.47,5.546,5.546,0,0,0,1.44-2.21H1460.3c0.03,0.01.06,0.03,0.09,0.04,4.21,2.38,9.48,6.29,8.77,10.73C1474.14,2189.94,1471.43,2184.66,1463.19,2181.94Z" transform="translate(-1076.03 -2170.38)"/>
</svg>
